<?xml version="1.0" encoding="utf-8"?>
<!-- Generator: Adobe Illustrator 18.0.0, SVG Export Plug-In . SVG Version: 6.00 Build 0)  -->
<!DOCTYPE svg PUBLIC "-//W3C//DTD SVG 1.1//EN" "http://www.w3.org/Graphics/SVG/1.1/DTD/svg11.dtd">
<svg version="1.1" id="Layer_1" xmlns="http://www.w3.org/2000/svg" xmlns:xlink="http://www.w3.org/1999/xlink" x="0px" y="0px"
	 viewBox="88.1 364.4 403.7 407.2" enable-background="new 88.1 364.4 403.7 407.2" xml:space="preserve">
<g>
	<path d="M331.3,526.8h160.5V366.1c-20.4,19.5-39.3,37.6-57.7,55.2C357.9,358.5,276.1,346,189,392.4
		c-53.2,28.4-84.6,75.1-98.4,135.2c13.1,0,23.9,0,34.8,0c9.3,0,18.5,0.4,27.7-0.4c2.6-0.2,5.6-3.6,7.1-6.3
		c5.7-10.3,10-21.6,16.5-31.5c48.9-73.9,150.9-85.2,211.7-22.7C369.4,486.9,350.9,506.3,331.3,526.8 M267.8,704.6
		c-29.6-4.2-54.7-17.7-76.4-38.6c18.3-19.3,36.1-38.1,53.6-56.6H88.1v158.3c19.8-18.9,39.4-37.3,58.9-55.9
		c69.2,61,146.7,78.8,232.4,37.2c58-28.1,93.5-75.9,109.7-140.2c-20.9,0-40,0.3-59-0.2c-6.4-0.2-9,2.5-11.3,8.1
		C393.6,679.5,334.5,714,267.8,704.6"/>
</g>
</svg>
